<svg xmlns="http://www.w3.org/2000/svg" viewBox="0 0 100 100">
  <defs>
    <linearGradient id="cg" x1="0.5" y1="0" x2="0.5" y2="1">
      <stop offset="0%" stop-color="#FF2A2A"/>
      <stop offset="100%" stop-color="#8B0000"/>
    </linearGradient>
  </defs>

  <\!-- Fond noir arrondi -->
  <rect width="100" height="100" rx="18" fill="#0d0d0d"/>

  <\!-- Pixels dispersés gauche -->
  <rect x="36" y="14" width="6" height="6" rx="1.5" fill="#E50914" opacity="1"/>
  <rect x="27" y="20" width="5" height="5" rx="1.2" fill="#E50914" opacity="0.85"/>
  <rect x="18" y="26" width="7" height="7" rx="1.5" fill="#E50914" opacity="0.8"/>
  <rect x="10" y="32" width="4" height="4" rx="1" fill="#E50914" opacity="0.6"/>
  <rect x="5"  y="38" width="5" height="5" rx="1.2" fill="#E50914" opacity="0.5"/>
  <rect x="33" y="27" width="4" height="4" rx="1" fill="#E50914" opacity="0.7"/>
  <rect x="22" y="34" width="6" height="6" rx="1.4" fill="#E50914" opacity="0.75"/>
  <rect x="13" y="40" width="4" height="4" rx="1" fill="#E50914" opacity="0.55"/>
  <rect x="6"  y="46" width="3" height="3" rx="0.8" fill="#E50914" opacity="0.4"/>
  <rect x="30" y="40" width="5" height="5" rx="1.2" fill="#E50914" opacity="0.7"/>
  <rect x="20" y="47" width="7" height="7" rx="1.5" fill="#E50914" opacity="0.75"/>
  <rect x="11" y="54" width="4" height="4" rx="1" fill="#E50914" opacity="0.5"/>
  <rect x="5"  y="59" width="3" height="3" rx="0.8" fill="#E50914" opacity="0.35"/>
  <rect x="28" y="53" width="4" height="4" rx="1" fill="#E50914" opacity="0.6"/>
  <rect x="19" y="60" width="5" height="5" rx="1.2" fill="#E50914" opacity="0.65"/>
  <rect x="12" y="66" width="3" height="3" rx="0.8" fill="#E50914" opacity="0.45"/>
  <rect x="34" y="64" width="4" height="4" rx="1" fill="#E50914" opacity="0.65"/>
  <rect x="24" y="70" width="6" height="6" rx="1.4" fill="#E50914" opacity="0.6"/>
  <rect x="8"  y="72" width="3" height="3" rx="0.8" fill="#E50914" opacity="0.3"/>

  <\!-- C arc : outer M top-gap A large-arc L inner-gap A small-arc Z -->
  <\!-- Center (51,50) R=34 r=21 gap=48deg : cos48=0.669 sin48=0.743 -->
  <path d="M 73.7 24.7
           A 34 34 0 1 0 73.7 75.3
           L 65.1 65.0
           A 21 21 0 1 1 65.1 35.0
           Z"
        fill="url(#cg)"/>

  <\!-- Play triangle -->
  <polygon points="44,41 44,59 62,50" fill="white" opacity="0.95"/>
</svg>
