<svg xmlns="http://www.w3.org/2000/svg" viewBox="0 0 100 100"><rect width="100" height="100" fill="#000"/><rect x="47" y="20" width="9" height="9" rx="2" fill="#E50914"/><rect x="36" y="19" width="8" height="8" rx="2" fill="#E50914" opacity=".9"/><rect x="26" y="19" width="7" height="7" rx="1.5" fill="#E50914" opacity=".75"/><rect x="17" y="21" width="6" height="6" rx="1.5" fill="#E50914" opacity=".55"/><rect x="9" y="23" width="5" height="5" rx="1.2" fill="#E50914" opacity=".38"/><rect x="47" y="32" width="9" height="9" rx="2" fill="#E50914" opacity=".95"/><rect x="36" y="31" width="8" height="8" rx="2" fill="#E50914" opacity=".85"/><rect x="26" y="30" width="7" height="7" rx="1.5" fill="#E50914" opacity=".7"/><rect x="17" y="32" width="6" height="6" rx="1.5" fill="#E50914" opacity=".5"/><rect x="8" y="33" width="5" height="5" rx="1.2" fill="#E50914" opacity=".33"/><rect x="47" y="44" width="9" height="9" rx="2" fill="#E50914" opacity=".9"/><rect x="36" y="43" width="8" height="8" rx="2" fill="#E50914" opacity=".8"/><rect x="26" y="43" width="7" height="7" rx="1.5" fill="#E50914" opacity=".65"/><rect x="17" y="44" width="6" height="6" rx="1.5" fill="#E50914" opacity=".45"/><rect x="8" y="45" width="5" height="5" rx="1.2" fill="#E50914" opacity=".28"/><rect x="47" y="57" width="9" height="9" rx="2" fill="#E50914" opacity=".9"/><rect x="36" y="57" width="8" height="8" rx="2" fill="#E50914" opacity=".8"/><rect x="26" y="56" width="7" height="7" rx="1.5" fill="#E50914" opacity=".65"/><rect x="17" y="57" width="6" height="6" rx="1.5" fill="#E50914" opacity=".45"/><rect x="8" y="58" width="5" height="5" rx="1.2" fill="#E50914" opacity=".28"/><rect x="47" y="70" width="9" height="9" rx="2" fill="#E50914" opacity=".85"/><rect x="36" y="70" width="8" height="8" rx="2" fill="#E50914" opacity=".75"/><rect x="26" y="69" width="7" height="7" rx="1.5" fill="#E50914" opacity=".6"/><rect x="17" y="70" width="6" height="6" rx="1.5" fill="#E50914" opacity=".4"/><rect x="8" y="71" width="4" height="4" rx="1" fill="#E50914" opacity=".25"/><rect x="36" y="82" width="7" height="7" rx="1.5" fill="#E50914" opacity=".6"/><rect x="26" y="81" width="6" height="6" rx="1.5" fill="#E50914" opacity=".45"/><rect x="17" y="82" width="5" height="5" rx="1.2" fill="#E50914" opacity=".3"/><defs><linearGradient id="g" x1="0" y1="0" x2="0" y2="1"><stop offset="0" stop-color="#FF2A2A"/><stop offset="1" stop-color="#990000"/></linearGradient></defs><path d="M88 28A30 30 0 1 0 88 72L80 63A18 18 0 1 1 80 37Z" fill="url(#g)"/><polygon points="57,41 57,59 77,50" fill="white"/></svg>